# xmcd
#
# Track frame offsets: 
#        150
#        18240
#        40812
#        65850
#        82885
#        98035
#
# Disc length: 1812 seconds
#
# Revision: 7
# Processed by: cddbd v1.5.2PL0 Copyright (c) Steve Scherf et al.
# Submitted via: ExactAudioCopy v1.0b1
#
DISCID=41071206
DTITLE=Ozzy Osbourne - Just Say Ozzy (Japan, CRCS 7935)
DYEAR=1990
DGENRE=Heavy Metal
TTITLE0=Miracle Man
TTITLE1=Bloodbath In Paradise
TTITLE2=Shot In The Dark
TTITLE3=Tattooed Dancer
TTITLE4=Sweet Leaf
TTITLE5=War Pigs
EXTD=YEAR: 1990
EXTT0=
EXTT1=
EXTT2=
EXTT3=
EXTT4=
EXTT5=
PLAYORDER=
